<svg width="25" height="33" viewBox="0 0 25 33" fill="none" xmlns="http://www.w3.org/2000/svg">
<path d="M11.2154 32.3342C1.75586 18.7579 0 17.3645 0 12.375C0 5.54045 5.59642 0 12.5 0C19.4036 0 25 5.54045 25 12.375C25 17.3645 23.2441 18.7579 13.7846 32.3342C13.1639 33.222 11.8361 33.2219 11.2154 32.3342ZM12.5 17.5312C15.3765 17.5312 17.7083 15.2227 17.7083 12.375C17.7083 9.52727 15.3765 7.21875 12.5 7.21875C9.6235 7.21875 7.29167 9.52727 7.29167 12.375C7.29167 15.2227 9.6235 17.5312 12.5 17.5312Z" fill="#FF5200"/>
</svg>
