<svg width="365" height="296" viewBox="0 0 365 296" fill="none" xmlns="http://www.w3.org/2000/svg">
<ellipse cx="173.298" cy="124.228" rx="124.223" ry="124.228" fill="#FF5200"/>
<ellipse cx="300.588" cy="193.244" rx="9.20169" ry="9.20207" fill="#FF5200"/>
<ellipse cx="38.3404" cy="86.6529" rx="9.20168" ry="8.43523" fill="#FF5200"/>
<ellipse cx="32.9726" cy="111.192" rx="9.96849" ry="9.96891" fill="#FF5200"/>
<ellipse cx="46.7752" cy="64.4145" rx="8.43487" ry="7.66839" fill="#FF5200"/>
<g opacity="0.1">
<path opacity="0.1" d="M201.084 177.479C201.084 177.479 202.269 152.606 215.953 138.735C221.73 132.953 225.472 125.456 226.616 117.371C227.125 113.529 227.281 109.649 227.081 105.778" stroke="#535461" stroke-width="2" stroke-miterlimit="10"/>
<path opacity="0.1" d="M235.662 96.9837C234.7 99.7492 226.895 106.031 226.895 106.031C226.895 106.031 224.666 96.2733 225.624 93.5077C225.819 92.8081 226.155 92.1556 226.611 91.5905C227.068 91.0255 227.637 90.5599 228.281 90.2226C228.925 89.8852 229.632 89.6832 230.357 89.6291C231.083 89.575 231.812 89.6699 232.499 89.908C233.187 90.146 233.818 90.5221 234.354 91.0131C234.89 91.5041 235.319 92.0995 235.616 92.7626C235.912 93.4257 236.069 94.1424 236.077 94.8684C236.085 95.5944 235.944 96.3143 235.662 96.9837Z" fill="#6C63FF"/>
<path opacity="0.1" d="M238.632 115.164C236.303 116.966 226.343 118.006 226.343 118.006C226.343 118.006 229.786 108.603 232.098 106.804C233.216 106.044 234.582 105.737 235.918 105.946C237.254 106.155 238.461 106.863 239.293 107.927C240.124 108.991 240.519 110.332 240.396 111.676C240.274 113.02 239.643 114.267 238.632 115.164Z" fill="#6C63FF"/>
<path opacity="0.1" d="M229.17 141.228C226.263 141.617 217.124 137.49 217.124 137.49C217.124 137.49 224.852 131.099 227.746 130.721C229.095 130.629 230.429 131.052 231.476 131.906C232.524 132.759 233.206 133.978 233.386 135.315C233.565 136.652 233.228 138.008 232.443 139.106C231.658 140.204 230.483 140.963 229.157 141.228H229.17Z" fill="#6C63FF"/>
<path opacity="0.1" d="M217.559 159.335C214.761 160.208 205.057 157.675 205.057 157.675C205.057 157.675 211.591 150.083 214.392 149.209C215.072 148.948 215.798 148.829 216.525 148.859C217.253 148.888 217.967 149.067 218.622 149.383C219.278 149.699 219.862 150.146 220.337 150.697C220.813 151.247 221.17 151.889 221.388 152.582C221.605 153.276 221.677 154.007 221.6 154.729C221.522 155.452 221.297 156.151 220.939 156.783C220.58 157.416 220.095 157.968 219.513 158.406C218.932 158.843 218.267 159.158 217.559 159.329V159.335Z" fill="#6C63FF"/>
<path opacity="0.1" d="M215.62 114.905C216.951 117.517 225.508 122.723 225.508 122.723C225.508 122.723 226.429 112.763 225.112 110.141C224.827 109.473 224.407 108.87 223.88 108.37C223.352 107.87 222.728 107.484 222.045 107.234C221.362 106.984 220.635 106.877 219.908 106.919C219.182 106.96 218.472 107.15 217.822 107.476C217.172 107.803 216.596 108.258 216.13 108.815C215.663 109.372 215.316 110.019 215.11 110.715C214.903 111.411 214.842 112.142 214.93 112.862C215.017 113.583 215.252 114.278 215.62 114.905Z" fill="#6C63FF"/>
<path opacity="0.1" d="M202.312 136.248C204.355 138.35 214.09 140.757 214.09 140.757C214.09 140.757 211.984 130.973 209.941 128.872C209.469 128.317 208.889 127.865 208.235 127.543C207.582 127.222 206.869 127.038 206.141 127.002C205.413 126.966 204.686 127.081 204.004 127.337C203.322 127.593 202.7 127.987 202.177 128.493C201.654 128.999 201.24 129.607 200.962 130.279C200.683 130.951 200.546 131.673 200.559 132.4C200.572 133.127 200.734 133.844 201.035 134.506C201.337 135.168 201.771 135.761 202.312 136.248Z" fill="#6C63FF"/>
<path opacity="0.1" d="M192.231 158.768C193.895 161.184 203.077 165.195 203.077 165.195C203.077 165.195 202.655 155.195 201.001 152.782C200.633 152.152 200.139 151.604 199.549 151.173C198.959 150.742 198.287 150.437 197.574 150.277C196.861 150.116 196.123 150.104 195.405 150.241C194.687 150.378 194.005 150.661 193.402 151.072C192.798 151.483 192.286 152.014 191.897 152.631C191.508 153.249 191.25 153.94 191.141 154.661C191.031 155.382 191.071 156.118 191.259 156.822C191.446 157.527 191.778 158.186 192.231 158.758V158.768Z" fill="#6C63FF"/>
</g>
<path d="M209.884 150.159C208.803 149.807 202.438 144.884 201.959 142.656C201.48 140.428 205.32 119.682 205.32 119.682C205.32 119.682 204.967 119.665 204.401 119.612V119.28L205.19 92.0205C205.19 92.0205 208.43 73.7376 202.309 74.79C196.187 75.8424 200.026 92.0205 200.026 92.0205C200.026 92.0205 199.328 100.227 198.839 102.691C198.363 105.061 196.227 114.729 197.687 117.733C197.739 117.841 197.799 117.944 197.867 118.042C197.867 118.042 198.107 128.354 195.465 129.761C192.943 131.089 191.895 137.849 191.805 138.456L191.672 138.397C190.921 137.938 190.258 137.349 189.716 136.657C189.666 136.587 189.62 136.511 189.57 136.438C191.288 134.56 192.217 132.096 192.166 129.554C192.114 127.012 191.086 124.587 189.294 122.78L189.044 122.537C189.25 122.333 189.402 122.081 189.487 121.804C189.952 120.403 188.342 119.277 187.507 118.401C185.574 116.349 183.831 113.836 181.136 112.674C181.908 113.111 182.623 113.642 183.265 114.254C182.452 113.554 181.52 113.003 180.514 112.627C177.693 111.631 174.445 112.455 171.983 114.134C169.522 115.814 167.702 118.235 166.038 120.675L165.233 121.87C164.528 121.08 163.761 120.348 162.937 119.682C161.377 118.51 158.256 114.642 158.256 114.642C158.256 114.642 148.532 104.796 147.81 102.1C147.088 99.404 137.367 83.226 135.204 86.0413C133.041 88.8566 142.646 101.16 142.646 101.16C142.646 101.16 144.45 105.616 145.89 107.136C147.331 108.657 158.014 123.898 158.014 123.898L158.919 125.724L159.088 126.056L158.975 125.993V128.221L159.973 128.311C159.53 128.702 159.124 129.135 158.762 129.602C158.22 130.388 157.817 131.26 157.571 132.182C155.997 137.371 156.64 143.051 158.669 148.087C159.088 149.123 159.567 150.156 159.694 151.261C159.877 152.808 159.361 154.339 159.048 155.869C158.616 158.017 158.632 160.358 159.714 162.273C161.161 164.816 164.405 166.141 167.346 165.666C168.688 165.44 169.958 164.901 171.052 164.093C172.43 163.138 173.542 161.85 174.282 160.348C174.831 159.229 175.174 158.024 175.72 156.902C175.823 156.686 175.939 156.48 176.052 156.271C177.297 157.662 178.414 158.927 178.414 158.927C178.414 158.927 181.056 171.586 178.774 175.102C177.56 176.871 176.09 178.451 174.412 179.789C173.989 180.137 173.6 180.525 173.251 180.948C173.025 181.111 172.892 181.197 172.892 181.197C172.892 181.197 172.832 181.366 172.745 181.625C172.21 182.411 171.822 183.287 171.601 184.211C171.518 184.448 171.489 184.699 171.514 184.949C171.677 185.281 170.34 186.608 170.733 187.176C167.406 190.994 166.767 196.784 166.767 196.784L160.702 205.811C157.581 213.839 152.9 214.662 152.9 214.662C152.9 214.662 141.921 207.451 141.612 207.099C141.302 206.747 137.11 204.991 137.11 204.991C136.612 204.135 135.857 203.458 134.951 203.055C133.511 202.471 133.391 200.303 133.391 200.303C133.211 195.204 130.147 194.792 130.147 194.792C127.678 194.59 125.789 195.018 124.341 195.805L123.902 195.838C121.776 196.007 119.215 196.193 116.4 196.376C108.592 196.88 106.735 201.827 106.735 201.827C106.735 201.827 105.774 202.879 107.035 204.022C108.296 205.164 116.35 204.041 116.683 203.995C116.069 204.062 115.449 204.021 114.85 203.872C116.121 203.826 117.864 203.782 119.348 203.779H119.71C119.617 204.55 119.572 205.326 119.577 206.103C119.577 207.57 123.719 208.507 123.719 208.507L136.325 219.462C136.325 219.462 144.25 222.922 149.3 227.902C154.351 232.882 158.785 228.606 158.785 228.606C164.109 227.317 179.482 209.167 179.496 209.151C179.496 209.709 179.828 227.334 180.441 230.876C180.464 231.056 180.509 231.232 180.574 231.401C181.296 232.928 180.334 237.088 179.908 238.848C179.482 240.607 179.605 243.3 179.605 243.3C179.605 243.3 173.85 264.853 174.346 266.728C174.841 268.604 171.222 277.395 171.222 277.395V284.719C171.222 284.719 171.451 284.719 171.85 284.689C171.768 284.805 171.692 284.926 171.624 285.051C171.609 285.077 171.596 285.103 171.584 285.131C171.584 285.131 175.424 285.951 178.005 285.715C180.587 285.479 185.028 287.664 185.028 287.664C185.028 287.664 186.532 288.354 191.153 288.66C195.774 288.965 195.774 286.668 195.774 286.668C195.242 283.55 187.946 282.511 187.717 282.481C187.128 282.119 186.575 281.724 186.123 281.386L186.027 281.309C186.061 281.243 186.089 281.173 186.11 281.1C186.892 277.993 182.57 276.645 182.57 276.645V275.885C185.388 274.477 185.93 264.806 185.93 264.806C185.93 264.806 190.132 252.854 190.731 250.862C191.33 248.87 190.731 245.882 190.731 245.882L191.153 243.306C191.153 243.306 192.052 241.547 192.052 241.195C192.171 240.3 192.523 239.452 193.073 238.735C193.738 237.971 192.354 236.155 192.354 236.155L193.555 233.107V229.748L196.373 217.617C196.373 217.617 199.318 203.49 198.296 198.859C197.275 194.228 199.497 191.887 199.497 191.887C199.296 191.99 199.09 192.082 198.879 192.163C199.162 191.529 199.405 190.878 199.607 190.214L205.928 190.981C205.928 191.034 205.928 191.07 205.928 191.07H208.207C208.207 191.07 207.489 182.395 207.489 178.88C207.489 175.364 209.891 162.821 209.891 162.821C209.891 162.821 210.962 150.511 209.884 150.159ZM181.851 139.867C181.851 139.917 181.851 139.964 181.851 140.01C181.851 140.342 181.818 140.711 181.795 141.072L181.668 141.265L181.439 141.069L181.149 141.504C181.099 141.229 181.117 140.945 181.203 140.679C181.289 140.412 181.44 140.171 181.642 139.977C181.709 139.937 181.779 139.901 181.851 139.871V139.867ZM202.851 180.48H202.991L202.764 181.051C202.794 180.865 202.821 180.676 202.851 180.483V180.48ZM179.792 284.194L178.93 283.985L179.409 283.906L179.842 284.188L179.895 284.221L179.792 284.194ZM188.588 282.966C188.302 282.817 188.013 282.634 187.733 282.475C187.823 282.524 188.192 282.714 188.588 282.966Z" fill="url(#paint0_linear)"/>
<path d="M204.95 171.705L199.444 186.021L198.672 185.39L195.605 190.141L204.95 191.303V171.705Z" fill="#F1D2D7"/>
<path opacity="0.1" d="M204.944 171.705L199.434 186.021L198.05 185.649L195.595 190.141L204.944 191.303V171.705Z" fill="black"/>
<path d="M196.32 180.865H204.95L208.117 154.85H196.32V180.865Z" fill="#F1D2D7"/>
<path opacity="0.1" d="M196.32 180.865H204.95L208.117 154.85H196.32V180.865Z" fill="black"/>
<path d="M179.462 161.012L181.322 160.68L185.604 159.983C185.604 159.983 198.463 157.094 201.128 156.862C202.791 156.716 204.631 156.032 205.785 155.534C206.481 155.238 206.923 155.009 206.923 155.009L202.292 146.567L195.106 141.255C195.106 141.255 190.561 140.289 188.635 137.649C188.207 137.081 187.928 136.415 187.824 135.711C187.72 135.008 187.794 134.29 188.039 133.622C189.214 129.99 181.033 137.092 181.033 137.092C181.033 137.092 181.113 138.792 181.033 140.959C181.033 141.388 180.993 141.833 180.963 142.287C180.943 142.586 180.916 142.885 180.89 143.19C180.687 145.342 180.278 147.559 179.472 148.884C177.51 152.108 179.462 161.012 179.462 161.012Z" fill="#FFBEC7"/>
<path opacity="0.1" d="M181.026 141.122H181.206C181.538 141.122 181.794 140.432 182.114 140.398C184.672 140.153 187.008 139.618 188.631 137.812C188.204 137.243 187.926 136.577 187.822 135.874C187.718 135.171 187.792 134.453 188.036 133.785C189.21 130.153 181.049 137.251 181.049 137.251C181.049 137.251 181.112 138.951 181.026 141.122Z" fill="black"/>
<path d="M171.069 130.834C171.073 133.472 172.127 136.001 173.998 137.866C175.869 139.73 178.405 140.777 181.049 140.777C181.374 140.777 181.698 140.76 182.021 140.727C183.941 140.539 185.765 139.799 187.272 138.597C188.779 137.395 189.904 135.781 190.51 133.953C191.115 132.125 191.176 130.161 190.685 128.299C190.194 126.437 189.171 124.758 187.742 123.465C186.313 122.172 184.538 121.32 182.633 121.014C180.728 120.708 178.775 120.961 177.011 121.741C175.247 122.522 173.748 123.796 172.696 125.41C171.644 127.024 171.085 128.908 171.085 130.834H171.069Z" fill="#FFBEC7"/>
<path opacity="0.1" d="M171.069 130.834C171.073 133.472 172.127 136.001 173.998 137.866C175.869 139.73 178.405 140.777 181.049 140.777C181.374 140.777 181.698 140.76 182.021 140.727C182.198 140.654 182.355 140.54 182.48 140.395C182.596 140.218 182.672 140.018 182.703 139.809C182.734 139.6 182.719 139.386 182.66 139.183C182.267 137.241 180.5 135.847 179.865 133.968C179.306 132.308 179.725 130.425 180.584 128.892C181.442 127.358 182.71 126.093 183.961 124.851C184.17 124.608 184.435 124.416 184.732 124.293C185.797 123.961 187.394 124.891 188.239 123.942C186.859 122.518 185.085 121.538 183.144 121.125C181.203 120.713 179.183 120.888 177.341 121.627C175.5 122.366 173.921 123.636 172.807 125.275C171.693 126.914 171.093 128.847 171.085 130.827L171.069 130.834Z" fill="black"/>
<path d="M184.366 124.127C184.068 124.249 183.803 124.44 183.594 124.685C182.347 125.927 181.079 127.188 180.221 128.726C179.363 130.263 178.943 132.132 179.502 133.798C180.134 135.681 181.904 137.075 182.294 139.017C182.353 139.22 182.368 139.433 182.337 139.641C182.306 139.85 182.23 140.049 182.114 140.226C181.781 140.641 181.149 140.664 180.717 140.976C180.164 141.378 180.051 142.175 180.218 142.835C180.443 143.478 180.75 144.09 181.132 144.655C182.064 146.298 182.463 148.436 181.465 150.033C180.995 150.685 180.435 151.267 179.802 151.762C178.753 152.692 177.783 153.705 176.901 154.794C176.14 155.699 175.49 156.691 174.964 157.748C174.439 158.854 174.106 160.046 173.577 161.151C172.336 163.737 169.894 165.799 167.056 166.267C164.218 166.735 161.088 165.427 159.694 162.921C158.642 161.028 158.629 158.721 159.045 156.613C159.341 155.106 159.843 153.595 159.67 152.068C159.544 150.979 159.081 149.96 158.672 148.937C156.716 143.957 156.094 138.367 157.611 133.247C157.849 132.34 158.238 131.479 158.762 130.701C159.313 130.021 159.921 129.389 160.579 128.812C162.651 126.79 164.178 124.29 165.785 121.883C167.392 119.476 169.142 117.086 171.521 115.429C173.9 113.773 177.03 112.953 179.752 113.945C182.6 114.984 184.36 117.634 186.336 119.765C187.138 120.635 188.695 121.74 188.246 123.125C187.59 125.077 185.614 123.736 184.366 124.127Z" fill="#493545"/>
<path opacity="0.1" d="M166.531 165.793C169.365 165.324 171.807 163.263 173.048 160.673C173.58 159.571 173.91 158.379 174.439 157.274C174.964 156.216 175.613 155.224 176.372 154.319C177.256 153.23 178.227 152.216 179.276 151.284C179.91 150.79 180.47 150.207 180.94 149.555C181.938 147.958 181.555 145.82 180.627 144.18C180.245 143.613 179.936 143.001 179.709 142.357C179.536 141.693 179.655 140.9 180.208 140.501C180.643 140.189 181.269 140.169 181.608 139.751C181.724 139.575 181.8 139.375 181.831 139.166C181.862 138.958 181.847 138.745 181.788 138.543C181.395 136.597 179.625 135.206 178.993 133.324C178.434 131.664 178.85 129.785 179.712 128.247C180.574 126.71 181.834 125.455 183.072 124.207C183.283 123.964 183.549 123.774 183.847 123.653C185.092 123.261 187.071 124.602 187.71 122.64C188.159 121.256 186.602 120.147 185.8 119.28C184.1 117.444 182.556 115.227 180.341 113.968C182.939 115.104 184.622 117.591 186.496 119.612C187.297 120.479 188.854 121.584 188.405 122.969C187.766 124.931 185.787 123.59 184.543 123.981C184.244 124.104 183.978 124.295 183.767 124.539C182.52 125.781 181.256 127.042 180.394 128.579C179.532 130.117 179.116 131.986 179.675 133.656C180.307 135.535 182.077 136.929 182.47 138.871C182.529 139.074 182.544 139.287 182.513 139.495C182.482 139.704 182.406 139.903 182.29 140.08C181.958 140.495 181.322 140.518 180.89 140.833C180.337 141.232 180.224 142.029 180.391 142.689C180.616 143.333 180.924 143.945 181.309 144.508C182.237 146.152 182.64 148.29 181.622 149.887C181.151 150.539 180.591 151.121 179.958 151.616C178.91 152.547 177.939 153.561 177.054 154.648C176.295 155.553 175.646 156.545 175.121 157.602C174.592 158.711 174.262 159.9 173.73 161.005C172.489 163.591 170.047 165.653 167.213 166.121C165.537 166.383 163.821 166.072 162.345 165.238C163.658 165.819 165.111 166.011 166.531 165.793Z" fill="black"/>
<path d="M177.087 281.824L178.827 282.969L179.09 283.145L179.143 283.182L181.202 284.54L186.006 285.35L190.238 285.061C190.238 285.061 191.456 282.518 189.543 282.574C188.929 282.545 188.33 282.374 187.793 282.076L187.534 281.94C187.257 281.794 186.978 281.631 186.708 281.459C186.143 281.1 185.607 280.712 185.171 280.376C184.539 279.888 184.117 279.517 184.117 279.517L177.087 281.824Z" fill="#FFBEC7"/>
<path opacity="0.1" d="M178.84 282.976L179.103 283.152L179.156 283.188L181.216 284.546L186.02 285.356L190.252 285.067C190.252 285.067 191.47 282.524 189.557 282.581C188.943 282.552 188.344 282.381 187.807 282.083C188.113 282.26 188.348 282.538 188.472 282.87C188.548 283.534 185.345 284.696 185.345 284.696L180.823 283.504C180.823 283.504 180.055 283.288 179 283.016L178.9 282.989L178.84 282.976Z" fill="black"/>
<path d="M171.122 284.085C171.122 284.085 174.828 284.892 177.32 284.662C179.812 284.433 184.097 286.581 184.097 286.581C184.097 286.581 185.547 287.245 190.005 287.554C194.463 287.863 194.477 285.585 194.477 285.585C193.964 282.514 186.921 281.485 186.698 281.459C186.788 281.505 187.144 281.694 187.523 281.94C188.022 282.272 188.565 282.694 188.605 283.036C188.681 283.7 185.477 284.862 185.477 284.862L180.959 283.673C180.959 283.673 180.191 283.454 179.133 283.182L179.033 283.155C177.476 282.726 175.894 282.393 174.296 282.159C172.349 281.953 171.351 283.607 171.148 283.989C171.132 284.058 171.122 284.085 171.122 284.085Z" fill="#BD577A"/>
<path d="M112.727 202.518L114.697 204.021C114.697 204.021 115.269 203.995 116.121 203.965H116.393C117.618 203.922 119.301 203.879 120.735 203.875C122.066 203.875 123.17 203.915 123.503 204.031C124.501 204.363 126.225 198.424 126.225 198.424L124.248 197.959L123.583 197.807L123.124 197.7L121.52 197.325L116.653 197.873L113.236 200.071L112.727 202.518Z" fill="#FFBEC7"/>
<path opacity="0.1" d="M112.727 202.518L114.697 204.021C114.697 204.021 115.269 203.995 116.121 203.965C115.731 203.812 115.411 203.523 115.219 203.152C113.945 199.626 120.259 198.125 120.259 198.125L123.2 197.996L123.769 197.973L124.248 197.949L123.583 197.797L123.124 197.69L121.52 197.315L116.653 197.863L113.236 200.061L112.727 202.518Z" fill="black"/>
<path d="M108.845 204.104C110.036 205.207 117.827 204.124 118.16 204.078C117.567 204.145 116.968 204.104 116.39 203.955C115.302 203.65 115.039 202.979 115.039 202.979C113.768 199.453 120.08 197.949 120.08 197.949L123.024 197.823L123.593 197.797L130.739 197.488L131.089 195.522C131.089 195.522 128.76 195.745 125.12 196.034C123.067 196.2 120.592 196.386 117.881 196.562C110.345 197.06 108.565 201.94 108.565 201.94C108.565 201.94 107.644 202.979 108.845 204.104Z" fill="#BD577A"/>
<path d="M196.324 118.968C196.373 119.074 196.43 119.176 196.493 119.274L198.233 121.817L202.751 122.282L202.801 120.495L203.56 93.604C203.56 93.604 206.691 75.5669 200.782 76.6093C194.873 77.6518 198.579 93.604 198.579 93.604C198.579 93.604 197.914 101.698 197.432 104.125C196.976 106.469 194.913 116.004 196.324 118.968Z" fill="#FFBEC7"/>
<path d="M186.183 185.752L187.467 187.95L190.345 192.863C190.345 192.863 195.568 194.772 196.899 193.325C197.634 192.528 198.422 189.762 198.978 187.442C199.434 185.553 199.737 183.959 199.737 183.959L186.183 185.752Z" fill="#FFBEC7"/>
<path opacity="0.1" d="M186.183 185.752L187.467 187.95C187.549 187.88 187.623 187.802 187.69 187.717C189.14 185.865 195.545 187.326 198.978 187.442C199.434 185.553 199.737 183.959 199.737 183.959L186.183 185.752Z" fill="black"/>
<path opacity="0.1" d="M120.735 203.865C122.066 203.865 123.17 203.905 123.503 204.021C124.501 204.353 126.225 198.414 126.225 198.414L123.613 197.797L130.759 197.488L131.109 195.522C131.109 195.522 128.78 195.745 125.14 196.034C124.381 196.465 123.706 197.027 123.144 197.694L123.034 197.826C121.514 199.689 120.951 202.093 120.735 203.865Z" fill="black"/>
<path opacity="0.1" d="M177.087 281.824L179.083 283.152C182.077 282.614 184.809 281.768 185.132 280.443C185.133 280.421 185.133 280.399 185.132 280.376C184.499 279.888 184.077 279.517 184.077 279.517L177.087 281.824Z" fill="black"/>
<path opacity="0.1" d="M171.158 284.005C173.801 283.877 176.433 283.595 179.043 283.162C177.486 282.733 175.904 282.4 174.306 282.166C172.359 281.97 171.361 283.623 171.158 284.005Z" fill="black"/>
<path d="M120.951 206.159C120.951 207.604 124.944 208.53 124.944 208.53L137.11 219.34C137.11 219.34 144.762 222.749 149.623 227.663C154.484 232.576 158.782 228.373 158.782 228.373C163.936 227.102 178.767 209.181 178.767 209.181C178.767 209.181 179.117 229.645 179.812 231.149C180.507 232.652 179.579 236.756 179.173 238.492C178.767 240.229 178.884 242.885 178.884 242.885C178.884 242.885 173.321 264.099 173.787 265.948C174.253 267.797 170.773 276.469 170.773 276.469V283.696C170.773 283.696 184.386 283.175 185.138 280.111C185.89 277.047 181.722 275.719 181.722 275.719V274.952C184.443 273.564 184.965 264.026 184.965 264.026C184.965 264.026 189.021 252.23 189.6 250.285C190.179 248.339 189.6 245.368 189.6 245.368L190.006 242.825C190.006 242.825 190.874 241.092 190.874 240.746C190.991 239.864 191.335 239.027 191.872 238.316C192.511 237.566 191.177 235.773 191.177 235.773L192.338 232.785V229.489L195.059 217.537C195.059 217.537 197.897 203.593 196.912 199.038C195.928 194.483 198.074 192.156 198.074 192.156C193.416 194.593 191.087 189.168 190.312 186.844C190.112 186.243 190.019 185.848 190.019 185.848C190.019 185.848 183.635 183.498 177.686 184.055C176.479 184.157 175.29 184.409 174.146 184.806C167.542 187.176 166.494 197.003 166.494 197.003L160.642 205.907C157.648 213.825 153.11 214.635 153.11 214.635C153.11 214.635 142.51 207.524 142.221 207.179C141.931 206.833 137.876 205.097 137.876 205.097C137.399 204.258 136.669 203.59 135.79 203.188C134.399 202.61 134.286 200.472 134.286 200.472C134.11 195.443 131.155 195.038 131.155 195.038C120.895 194.135 120.951 204.715 120.951 206.159Z" fill="#E7AEB8"/>
<path d="M179.925 177.89H186.183V158.525H179.925V177.89Z" fill="#F1D2D7"/>
<path opacity="0.1" d="M179.346 177.097H185.604V157.732H179.346V177.097Z" fill="black"/>
<path opacity="0.1" d="M196.32 118.925C196.319 118.939 196.319 118.954 196.32 118.968C196.369 119.074 196.426 119.176 196.49 119.274L198.23 121.817L202.748 122.282L202.798 120.495C201.387 120.373 198.18 119.987 196.32 118.925Z" fill="black"/>
<path d="M196.493 119.274C196.493 119.274 196.726 129.446 194.164 130.834C191.602 132.221 190.624 139.466 190.624 139.466C190.624 139.466 198.336 144.538 200.073 146.769C201.81 149 205.749 154.316 204.94 155.587C204.132 156.859 206.923 162.639 206.923 162.639C206.923 162.639 201.823 173.047 202.984 176.977C204.145 180.908 204.258 191.313 204.258 191.313H206.454C206.454 191.313 205.759 182.757 205.759 179.288C205.759 175.819 208.087 163.449 208.087 163.449C208.087 163.449 209.129 151.308 208.087 150.962C207.046 150.617 200.905 145.76 200.435 143.562C199.966 141.365 203.679 120.9 203.679 120.9C203.679 120.9 198.928 120.661 196.493 119.274Z" fill="#0082FF"/>
<path opacity="0.1" d="M179.812 156.732C180.021 158.148 180.536 159.5 181.322 160.696L185.604 159.983C185.604 159.983 198.463 157.094 201.128 156.862C202.791 156.716 204.631 156.032 205.785 155.534C204.768 151.931 202.778 148.677 200.033 146.125L198.399 144.615C195.991 142.392 193.207 140.613 190.175 139.363C190.365 139.525 203.856 151.019 200.901 153.273C197.947 155.527 189.999 150.023 189.999 150.023L180.953 142.268L180.62 141.985L180.095 142.795C180.362 142.906 180.623 143.031 180.876 143.171C183.952 144.863 186.232 147.699 187.221 151.062C189.087 157.303 179.812 156.732 179.812 156.732Z" fill="black"/>
<path opacity="0.1" d="M177.031 185.636C177.031 185.636 185.604 190.377 187.677 187.717C188.136 187.133 189.088 186.877 190.285 186.808C190.086 186.207 189.993 185.812 189.993 185.812C189.993 185.812 183.608 183.461 177.66 184.019C177.277 185.005 177.031 185.636 177.031 185.636Z" fill="black"/>
<path d="M180.973 141.992L190.345 150.023C190.345 150.023 198.27 155.534 201.244 153.263C204.219 150.992 190.518 139.349 190.518 139.349C193.552 140.598 196.338 142.377 198.746 144.601L200.379 146.112C204.671 150.079 205.639 150.079 205.782 155.916C205.819 157.35 205.33 159.415 204.954 159.79C203.563 161.165 202.585 171.031 202.801 172.187C203.018 173.342 200.203 183.322 201.138 186.097C202.073 188.873 189.786 184.709 187.7 187.369C185.614 190.028 177.054 185.287 177.054 185.287C177.054 185.287 181.805 173.146 182.963 172.339C184.12 171.533 185.511 165.285 182.963 162.38C180.414 159.475 180.171 156.732 180.171 156.732C180.171 156.732 189.447 157.307 187.587 151.069C187.064 149.261 186.157 147.587 184.927 146.16C183.697 144.734 182.174 143.588 180.461 142.802L180.973 141.992Z" fill="#E8E8F0"/>
<path opacity="0.1" d="M193.479 162.456C193.479 162.456 189.886 169.222 185.231 170.978C185.085 171.031 184.938 171.081 184.789 171.128C179.925 172.598 193.828 164.538 193.479 162.456Z" fill="black"/>
<path d="M143.199 102.624C143.199 102.624 144.935 107.02 146.326 108.52C147.717 110.021 158.027 125.054 158.027 125.054L158.902 126.856L159.65 128.407L166.254 127.713L166.717 125.057L166.464 124.748C165.799 123.955 163.992 121.823 162.778 120.894C161.274 119.738 158.26 115.914 158.26 115.914C158.26 115.914 148.874 106.2 148.182 103.544C147.49 100.888 138.102 84.9291 136.016 87.7045C133.93 90.48 143.199 102.624 143.199 102.624Z" fill="#FFBEC7"/>
<path opacity="0.1" d="M158.902 126.856L159.65 128.407L166.254 127.713L166.717 125.057L166.464 124.748C165.752 125.097 160.472 127.623 158.902 126.856Z" fill="black"/>
<path opacity="0.1" d="M183.285 144.246C183.285 144.246 181.665 141.703 180.737 142.397C179.808 143.091 179.449 140.315 178.933 140.777C178.418 141.238 176.854 142.53 176.219 140.724C175.713 139.29 170.23 130.226 167.994 126.574L167.066 125.054C167.066 125.054 160.808 128.178 159.304 127.135V129.333L160.579 129.449L167.412 142.165C167.412 142.165 169.561 145.568 169.408 146.759C169.255 147.951 172.156 153.15 172.619 153.495C173.081 153.841 178.065 159.624 178.065 159.624C178.065 159.624 180.614 172.11 178.398 175.58C176.182 179.049 172.373 181.592 172.373 181.592C172.373 181.592 171.225 184.942 171.375 185.29C171.524 185.639 170.044 187.14 170.733 187.614C171.421 188.089 172.356 191.316 172.356 191.316C172.356 191.316 175.6 186.114 177.346 185.304C179.093 184.494 181.339 173.857 181.339 173.857C181.339 173.857 181.978 167.585 182.031 163.538C182.084 159.491 181.894 144.246 183.285 144.246Z" fill="black"/>
<path d="M182.939 144.246C182.939 144.246 181.316 141.703 180.391 142.397C179.466 143.091 179.103 140.315 178.587 140.777C178.072 141.238 176.508 142.53 175.873 140.724C175.364 139.29 169.884 130.226 167.648 126.574C167.076 125.635 166.717 125.054 166.717 125.054C166.717 125.054 160.462 128.178 158.955 127.135V129.333L160.229 129.449L167.066 142.165C167.066 142.165 169.212 145.568 169.062 146.759C168.913 147.951 171.814 153.15 172.276 153.495C172.739 153.841 177.722 159.624 177.722 159.624C177.722 159.624 180.271 172.11 178.055 175.58C176.89 177.319 175.473 178.876 173.85 180.201C172.495 181.324 171.542 182.856 171.135 184.567C171.057 184.799 171.03 185.046 171.055 185.29C171.225 185.622 169.724 187.14 170.413 187.614C171.102 188.089 172.033 191.316 172.033 191.316C172.033 191.316 175.277 186.114 177.024 185.304C178.77 184.494 181.016 173.857 181.016 173.857C181.016 173.857 181.652 167.585 181.705 163.538C181.758 159.491 181.548 144.246 182.939 144.246Z" fill="#0082FF"/>
<path opacity="0.1" d="M167.066 196.85C167.066 196.85 171.934 197.777 173.903 199.174C175.873 200.572 166.487 196.977 166.487 196.977L167.066 196.85Z" fill="black"/>
<path opacity="0.1" d="M178.767 209.164C178.767 209.164 183.864 213.384 182.939 217.202C182.014 221.019 179.679 230.614 179.679 230.614L178.767 209.164Z" fill="black"/>
<path opacity="0.1" d="M134.365 201.043C134.365 201.043 127.209 201.824 127.672 202.747C128.134 203.67 134.365 201.897 134.365 201.897V201.043Z" fill="black"/>
<path opacity="0.1" d="M189.31 236.162C189.31 236.162 189.776 236.739 187.111 236.162C184.446 235.584 186.416 233.805 186.416 233.805L189.31 236.162Z" fill="black"/>
<path opacity="0.1" d="M188.385 244.139C188.385 244.139 184.726 244.717 182.793 244.139C180.86 243.562 188.385 244.139 188.385 244.139Z" fill="black"/>
<path opacity="0.1" d="M180.91 275.353C180.91 275.353 180.274 274.66 177.087 275.934C173.9 277.209 172.626 277.262 171.701 276.857C170.776 276.452 180.91 275.353 180.91 275.353Z" fill="black"/>
<path opacity="0.1" d="M184.446 200.061L179.925 206.332C179.925 206.332 182.36 200.841 184.446 200.061Z" fill="black"/>
<path opacity="0.1" d="M175.64 142.387C175.64 142.387 175.447 144.469 172.532 145.279C169.618 146.089 169.066 146.749 169.066 146.749" fill="black"/>
<path opacity="0.1" d="M168.091 127.301C168.091 127.301 164.248 130.03 160.229 129.449L168.091 127.301Z" fill="black"/>
<path opacity="0.1" d="M171.019 185.579C171.019 185.579 172.143 186.283 174.838 183.206L171.019 185.579Z" fill="black"/>
<path opacity="0.1" d="M199.015 152.968C199.125 152.407 198.732 151.882 198.35 151.444L197.595 150.544C197.448 150.359 197.283 150.189 197.102 150.036C196.656 149.688 196.064 149.581 195.592 149.269" fill="black"/>
<path d="M193.738 31.475H144.184C143.351 31.4701 142.526 31.629 141.755 31.9424C140.985 32.2558 140.283 32.7176 139.691 33.3015C139.099 33.8854 138.628 34.5799 138.305 35.3454C137.983 36.1109 137.814 36.9324 137.809 37.7629V86.6621C137.814 87.4926 137.983 88.3141 138.305 89.0796C138.628 89.8451 139.099 90.5396 139.691 91.1235C140.283 91.7074 140.985 92.1692 141.755 92.4826C142.526 92.796 143.351 92.9548 144.184 92.95H193.755C194.587 92.9548 195.413 92.796 196.183 92.4826C196.954 92.1692 197.655 91.7074 198.247 91.1235C198.839 90.5396 199.31 89.8451 199.633 89.0796C199.956 88.3141 200.125 87.4926 200.13 86.6621V37.7629C200.125 36.9309 199.956 36.1081 199.632 35.3415C199.308 34.575 198.835 33.8797 198.242 33.2956C197.648 32.7115 196.944 32.25 196.172 31.9376C195.399 31.6252 194.572 31.468 193.738 31.475Z" fill="url(#paint1_linear)"/>
<path d="M193.565 31.475H144.566C141.084 31.475 138.261 34.2917 138.261 37.7662V86.6621C138.261 90.1367 141.084 92.9534 144.566 92.9534H193.565C197.047 92.9534 199.87 90.1367 199.87 86.6621V37.7662C199.87 34.2917 197.047 31.475 193.565 31.475Z" fill="#0082FF"/>
<path d="M158.476 70.7463C157.629 70.7459 156.809 71.0384 156.154 71.5742C155.499 72.1099 155.051 72.8557 154.885 73.6845C154.72 74.5132 154.847 75.3735 155.246 76.1189C155.645 76.8642 156.291 77.4484 157.073 77.7719C157.855 78.0954 158.726 78.1382 159.536 77.893C160.347 77.6477 161.047 77.1297 161.517 76.427C161.987 75.7244 162.199 74.8808 162.116 74.0398C162.033 73.1989 161.66 72.4127 161.061 71.8154C160.725 71.4717 160.323 71.1997 159.879 71.016C159.434 70.8322 158.957 70.7405 158.476 70.7463Z" fill="#EAEAF3"/>
<path d="M157.661 63.0408C157.664 62.0963 157.339 61.1799 156.74 60.448C156.142 59.7161 155.308 59.2141 154.38 59.0275C153.452 58.8409 152.488 58.9813 151.652 59.4249C150.817 59.8684 150.161 60.5875 149.797 61.4595C149.434 62.3316 149.384 63.3025 149.658 64.2067C149.932 65.1109 150.511 65.8924 151.298 66.4179C152.084 66.9433 153.029 67.1801 153.971 67.088C154.913 66.9958 155.794 66.5804 156.463 65.9125C156.849 65.5411 157.155 65.0946 157.361 64.6006C157.567 64.1067 157.669 63.5758 157.661 63.0408Z" fill="#EAEAF3"/>
<path d="M181.286 53.6753C181.757 53.6737 182.214 53.509 182.578 53.2093C182.941 52.9096 183.19 52.4934 183.28 52.0315C183.371 51.5696 183.298 51.0907 183.075 50.6762C182.852 50.2617 182.491 49.9373 182.055 49.7582C181.619 49.5791 181.134 49.5564 180.683 49.6939C180.232 49.8315 179.843 50.1208 179.581 50.5126C179.32 50.9044 179.203 51.3744 179.25 51.8427C179.297 52.311 179.505 52.7486 179.839 53.081C180.026 53.2737 180.252 53.4258 180.5 53.528C180.749 53.6302 181.017 53.6804 181.286 53.6753Z" fill="#EAEAF3"/>
<path d="M158.476 47.1749C157.441 47.1763 156.439 47.5357 155.64 48.1919C154.84 48.8481 154.294 49.7604 154.093 50.7736C153.892 51.7867 154.049 52.838 154.538 53.7485C155.027 54.6589 155.816 55.3721 156.773 55.7667C157.729 56.1613 158.793 56.2129 159.784 55.9126C160.774 55.6123 161.629 54.9788 162.204 54.1198C162.779 53.2609 163.037 52.2298 162.936 51.202C162.834 50.1742 162.379 49.2133 161.647 48.4829C161.236 48.0606 160.742 47.7267 160.197 47.5018C159.652 47.2768 159.066 47.1656 158.476 47.1749Z" fill="#EAEAF3"/>
<path d="M187.906 61.2978C187.505 60.8934 186.976 60.6404 186.409 60.5821C185.841 60.5237 185.272 60.6637 184.796 60.978C184.321 61.2924 183.97 61.7616 183.803 62.3056C183.635 62.8496 183.663 63.4346 183.88 63.9608C184.097 64.487 184.49 64.9217 184.992 65.1907C185.495 65.4597 186.075 65.5463 186.635 65.4358C187.194 65.3252 187.698 65.0243 188.059 64.5845C188.421 64.1447 188.619 63.5932 188.618 63.0242C188.624 62.7032 188.564 62.3844 188.441 62.0876C188.319 61.7907 188.137 61.5219 187.906 61.2978Z" fill="#EAEAF3"/>
<path d="M181.286 71.5597C180.621 71.5519 179.974 71.7749 179.456 72.1904C178.938 72.6059 178.58 73.1882 178.445 73.8376C178.309 74.4871 178.404 75.1634 178.713 75.7509C179.021 76.3383 179.525 76.8004 180.138 77.0582C180.75 77.316 181.434 77.3533 182.071 77.1639C182.708 76.9745 183.259 76.5701 183.631 76.0199C184.002 75.4696 184.17 74.8077 184.107 74.1473C184.043 73.487 183.752 72.8692 183.282 72.3996C183.023 72.1323 182.713 71.92 182.37 71.7756C182.027 71.6313 181.658 71.5578 181.286 71.5597Z" fill="#EAEAF3"/>
<path d="M169.881 76.0317C169.126 76.0317 168.395 76.2928 167.812 76.7703C167.229 77.2479 166.83 77.9124 166.683 78.6507C166.536 79.3889 166.65 80.1553 167.005 80.8191C167.361 81.4829 167.936 82.0031 168.633 82.2912C169.33 82.5792 170.106 82.6171 170.827 82.3986C171.549 82.18 172.173 81.7185 172.592 81.0926C173.011 80.4667 173.2 79.7152 173.126 78.9661C173.052 78.217 172.72 77.5167 172.186 76.9845C171.887 76.6775 171.528 76.4347 171.132 76.2709C170.735 76.107 170.31 76.0256 169.881 76.0317Z" fill="#EAEAF3"/>
<path d="M169.881 41.8896C168.757 41.8956 167.671 42.2897 166.806 43.0049C165.941 43.7201 165.351 44.7122 165.136 45.8126C164.921 46.913 165.095 48.0536 165.628 49.0405C166.161 50.0274 167.02 50.7997 168.059 51.2259C169.098 51.6522 170.252 51.7062 171.327 51.3787C172.401 51.0512 173.329 50.3624 173.952 49.4295C174.575 48.4967 174.855 47.3772 174.744 46.2617C174.633 45.1461 174.139 44.1033 173.344 43.3105C172.894 42.8506 172.355 42.4873 171.76 42.243C171.164 41.9986 170.525 41.8784 169.881 41.8896Z" fill="#EAEAF3"/>
<ellipse cx="286.786" cy="210.114" rx="6.13446" ry="6.13473" fill="#FF5200"/>
<ellipse cx="271.45" cy="223.917" rx="6.13446" ry="6.13472" fill="#FF5200"/>
<defs>
<linearGradient id="paint0_linear" x1="54956" y1="182060" x2="54956" y2="44200.2" gradientUnits="userSpaceOnUse">
<stop stop-color="#808080" stop-opacity="0.25"/>
<stop offset="0.54" stop-color="#808080" stop-opacity="0.12"/>
<stop offset="1" stop-color="#808080" stop-opacity="0.1"/>
</linearGradient>
<linearGradient id="paint1_linear" x1="29158.6" y1="10390.7" x2="40829.3" y2="10390.7" gradientUnits="userSpaceOnUse">
<stop stop-color="#808080" stop-opacity="0.25"/>
<stop offset="0.54" stop-color="#808080" stop-opacity="0.12"/>
<stop offset="1" stop-color="#808080" stop-opacity="0.1"/>
</linearGradient>
</defs>
</svg>
