<svg width="28" height="28" viewBox="0 0 28 28" fill="none" xmlns="http://www.w3.org/2000/svg">
<path d="M14 0C6.26613 0 0 6.26613 0 14C0 21.7339 6.26613 28 14 28C21.7339 28 28 21.7339 28 14C28 6.26613 21.7339 0 14 0ZM17.2234 19.7637L12.2444 16.1452C12.0694 16.0153 11.9677 15.8121 11.9677 15.5976V6.09677C11.9677 5.72419 12.2726 5.41935 12.6452 5.41935H15.3548C15.7274 5.41935 16.0323 5.72419 16.0323 6.09677V13.8702L19.6169 16.4782C19.9218 16.6984 19.9839 17.1218 19.7637 17.4266L18.1718 19.6169C17.9516 19.9161 17.5282 19.9839 17.2234 19.7637Z" fill="#FF5200"/>
</svg>
