<svg width="25" height="29" viewBox="0 0 25 29" fill="none" xmlns="http://www.w3.org/2000/svg">
<path d="M24.287 20.4924L18.8182 17.7736C18.5846 17.6581 18.3249 17.6338 18.0783 17.7043C17.8318 17.7748 17.6116 17.9363 17.451 18.1645L15.0291 21.5969C11.2281 19.5181 8.16919 15.9697 6.37706 11.5606L9.3361 8.75118C9.53321 8.56522 9.67272 8.30982 9.73352 8.02365C9.79431 7.73748 9.77307 7.43613 9.67302 7.16522L7.32923 0.821356C7.21942 0.529317 7.0252 0.290877 6.78007 0.14715C6.53494 0.00342407 6.25426 -0.0365794 5.98643 0.0340378L0.908219 1.39344C0.649996 1.46261 0.419609 1.63126 0.25466 1.87188C0.0897111 2.1125 -5.94839e-05 2.41086 2.95718e-08 2.71828C2.95718e-08 17.2469 10.1515 29 22.6566 29C22.9217 29.0002 23.1791 28.8961 23.3866 28.7048C23.5941 28.5134 23.7396 28.2461 23.7992 27.9465L24.9711 22.0557C25.0316 21.7435 24.9964 21.4166 24.8715 21.1313C24.7467 20.846 24.54 20.6201 24.287 20.4924Z" fill="#FF5200"/>
</svg>
