<svg width="24" height="24" viewBox="0 0 24 24" fill="none" xmlns="http://www.w3.org/2000/svg">
<circle r="12" transform="matrix(1 0 0 -1 12 12)" fill="#0082FF"/>
<path d="M17.0714 13.2857H12.8929V17.1429C12.8929 17.6162 12.477 18 11.9643 18H11.0357C10.523 18 10.1071 17.6162 10.1071 17.1429V13.2857H5.92857C5.41583 13.2857 5 12.9019 5 12.4286V11.5714C5 11.0981 5.41583 10.7143 5.92857 10.7143H10.1071V6.85714C10.1071 6.38384 10.523 6 11.0357 6H11.9643C12.477 6 12.8929 6.38384 12.8929 6.85714V10.7143H17.0714C17.5842 10.7143 18 11.0981 18 11.5714V12.4286C18 12.9019 17.5842 13.2857 17.0714 13.2857Z" fill="white"/>
</svg>
