<svg width="20" height="19" viewBox="0 0 20 19" fill="none" xmlns="http://www.w3.org/2000/svg">
<path d="M20 13.3594V0.890625C20 0.39707 19.5223 0 18.9286 0H4.28571C1.91964 0 0 1.5957 0 3.5625V15.4375C0 17.4043 1.91964 19 4.28571 19H18.9286C19.5223 19 20 18.6029 20 18.1094V17.5156C20 17.2373 19.8438 16.985 19.6027 16.8217C19.4152 16.2502 19.4152 14.6211 19.6027 14.0496C19.8438 13.89 20 13.6377 20 13.3594ZM5.71429 4.97266C5.71429 4.8502 5.83482 4.75 5.98214 4.75H15.4464C15.5938 4.75 15.7143 4.8502 15.7143 4.97266V5.71484C15.7143 5.8373 15.5938 5.9375 15.4464 5.9375H5.98214C5.83482 5.9375 5.71429 5.8373 5.71429 5.71484V4.97266ZM5.71429 7.34766C5.71429 7.2252 5.83482 7.125 5.98214 7.125H15.4464C15.5938 7.125 15.7143 7.2252 15.7143 7.34766V8.08984C15.7143 8.21231 15.5938 8.3125 15.4464 8.3125H5.98214C5.83482 8.3125 5.71429 8.21231 5.71429 8.08984V7.34766ZM17.0268 16.625H4.28571C3.49554 16.625 2.85714 16.0943 2.85714 15.4375C2.85714 14.7844 3.5 14.25 4.28571 14.25H17.0268C16.942 14.8846 16.942 15.9904 17.0268 16.625Z" fill="white"/>
</svg>
