<svg width="20" height="20" viewBox="0 0 20 20" fill="none" xmlns="http://www.w3.org/2000/svg">
<path d="M18.125 10H1.875C1.37772 10 0.900805 10.2258 0.549175 10.6276C0.197544 11.0295 0 11.5745 0 12.1429C0 12.7112 0.197544 13.2562 0.549175 13.6581C0.900805 14.0599 1.37772 14.2857 1.875 14.2857H18.125C18.6223 14.2857 19.0992 14.0599 19.4508 13.6581C19.8025 13.2562 20 12.7112 20 12.1429C20 11.5745 19.8025 11.0295 19.4508 10.6276C19.0992 10.2258 18.6223 10 18.125 10ZM18.75 15.7143H1.25C1.08424 15.7143 0.925268 15.7895 0.808058 15.9235C0.690848 16.0574 0.625 16.2391 0.625 16.4286V17.1429C0.625 17.9006 0.888392 18.6273 1.35723 19.1632C1.82607 19.699 2.46196 20 3.125 20H16.875C17.538 20 18.1739 19.699 18.6428 19.1632C19.1116 18.6273 19.375 17.9006 19.375 17.1429V16.4286C19.375 16.2391 19.3092 16.0574 19.1919 15.9235C19.0747 15.7895 18.9158 15.7143 18.75 15.7143ZM2.29063 8.57143H17.7094C19.0598 8.57143 19.843 6.61161 19.0695 5.18393C17.5 2.28571 14.0449 0.00446429 10 0C5.95547 0.00446429 2.5 2.28571 0.930469 5.18348C0.15625 6.61116 0.940234 8.57143 2.29063 8.57143ZM15 3.57143C15.1236 3.57143 15.2445 3.61332 15.3472 3.69181C15.45 3.77029 15.5301 3.88185 15.5774 4.01237C15.6247 4.14289 15.6371 4.28651 15.613 4.42506C15.5889 4.56362 15.5294 4.6909 15.4419 4.79079C15.3545 4.89069 15.2432 4.95871 15.1219 4.98628C15.0007 5.01384 14.875 4.99969 14.7608 4.94563C14.6466 4.89157 14.549 4.80001 14.4803 4.68255C14.4117 4.56509 14.375 4.42699 14.375 4.28571C14.375 4.09627 14.4408 3.91459 14.5581 3.78064C14.6753 3.64668 14.8342 3.57143 15 3.57143ZM10 2.14286C10.1236 2.14286 10.2445 2.18475 10.3472 2.26324C10.45 2.34172 10.5301 2.45328 10.5774 2.5838C10.6247 2.71432 10.6371 2.85794 10.613 2.99649C10.5889 3.13505 10.5294 3.26232 10.4419 3.36222C10.3545 3.46211 10.2432 3.53014 10.1219 3.5577C10.0007 3.58526 9.87503 3.57112 9.76082 3.51706C9.64662 3.46299 9.54901 3.37144 9.48033 3.25398C9.41166 3.13652 9.375 2.99842 9.375 2.85714C9.375 2.6677 9.44085 2.48602 9.55806 2.35207C9.67527 2.21811 9.83424 2.14286 10 2.14286ZM5 3.57143C5.12361 3.57143 5.24445 3.61332 5.34723 3.69181C5.45001 3.77029 5.53012 3.88185 5.57743 4.01237C5.62473 4.14289 5.63711 4.28651 5.61299 4.42506C5.58888 4.56362 5.52935 4.6909 5.44194 4.79079C5.35453 4.89069 5.24317 4.95871 5.12193 4.98628C5.00069 5.01384 4.87503 4.99969 4.76082 4.94563C4.64662 4.89157 4.54901 4.80001 4.48033 4.68255C4.41166 4.56509 4.375 4.42699 4.375 4.28571C4.375 4.09627 4.44085 3.91459 4.55806 3.78064C4.67527 3.64668 4.83424 3.57143 5 3.57143Z" fill="white"/>
</svg>
