<svg width="22" height="21" viewBox="0 0 22 21" fill="none" xmlns="http://www.w3.org/2000/svg">
<path d="M22 8.62514V9.37514C22 9.99646 21.5896 10.5001 21.0833 10.5001H20.7778L19.7804 19.0683C19.6514 20.1768 18.8779 21.0001 17.9655 21.0001H4.03448C3.12213 21.0001 2.34861 20.1768 2.21956 19.0683L1.22222 10.5001H0.916667C0.410399 10.5001 0 9.99646 0 9.37514V8.62514C0 8.00381 0.410399 7.50013 0.916667 7.50013H3.48872L7.56712 0.617899C7.96415 -0.052039 8.7285 -0.200211 9.27445 0.287055C9.82036 0.77432 9.94106 1.71243 9.54403 2.38241L6.51127 7.50013H15.4887L12.456 2.38237C12.0589 1.71243 12.1797 0.774274 12.7256 0.287008C13.2714 -0.200258 14.0359 -0.0521327 14.4329 0.617852L18.5113 7.50013H21.0833C21.5896 7.50013 22 8.00381 22 8.62514ZM11.9167 16.8751V11.6251C11.9167 11.0038 11.5063 10.5001 11 10.5001C10.4937 10.5001 10.0833 11.0038 10.0833 11.6251V16.8751C10.0833 17.4965 10.4937 18.0001 11 18.0001C11.5063 18.0001 11.9167 17.4965 11.9167 16.8751ZM16.1944 16.8751V11.6251C16.1944 11.0038 15.784 10.5001 15.2778 10.5001C14.7715 10.5001 14.3611 11.0038 14.3611 11.6251V16.8751C14.3611 17.4965 14.7715 18.0001 15.2778 18.0001C15.784 18.0001 16.1944 17.4965 16.1944 16.8751ZM7.63889 16.8751V11.6251C7.63889 11.0038 7.22849 10.5001 6.72222 10.5001C6.21595 10.5001 5.80556 11.0038 5.80556 11.6251V16.8751C5.80556 17.4965 6.21595 18.0001 6.72222 18.0001C7.22849 18.0001 7.63889 17.4965 7.63889 16.8751Z" fill="white"/>
</svg>
