<svg width="18" height="25" viewBox="0 0 18 25" fill="none" xmlns="http://www.w3.org/2000/svg">
<path d="M18 5.46875V22.6562C18 23.9507 16.9927 25 15.75 25H2.25C1.00734 25 0 23.9507 0 22.6562V5.46875C0 4.17432 1.00734 3.125 2.25 3.125H6C6 1.40186 7.34578 0 9 0C10.6542 0 12 1.40186 12 3.125H15.75C16.9927 3.125 18 4.17432 18 5.46875ZM9 1.95312C8.37867 1.95312 7.875 2.47778 7.875 3.125C7.875 3.77222 8.37867 4.29688 9 4.29688C9.62133 4.29688 10.125 3.77222 10.125 3.125C10.125 2.47778 9.62133 1.95312 9 1.95312ZM13.5 7.51953V6.54297C13.5 6.46527 13.4704 6.39075 13.4176 6.33581C13.3649 6.28087 13.2933 6.25 13.2188 6.25H4.78125C4.70666 6.25 4.63512 6.28087 4.58238 6.33581C4.52963 6.39075 4.5 6.46527 4.5 6.54297V7.51953C4.5 7.59723 4.52963 7.67175 4.58238 7.72669C4.63512 7.78163 4.70666 7.8125 4.78125 7.8125H13.2188C13.2933 7.8125 13.3649 7.78163 13.4176 7.72669C13.4704 7.67175 13.5 7.59723 13.5 7.51953Z" fill="white"/>
</svg>
