<svg width="22" height="21" viewBox="0 0 22 21" fill="none" xmlns="http://www.w3.org/2000/svg">
<path d="M21.0833 2.625H17.1111V0.984375C17.1111 0.438867 16.7024 0 16.1944 0H5.80556C5.29757 0 4.88889 0.438867 4.88889 0.984375V2.625H0.916667C0.408681 2.625 0 3.06387 0 3.60938V5.90625C0 7.37051 0.859375 8.87578 2.36424 10.0365C3.56736 10.9676 5.03021 11.5582 6.56562 11.7469C7.76493 13.8838 9.16667 14.7656 9.16667 14.7656V17.7188H7.33333C5.98507 17.7188 4.88889 18.5678 4.88889 20.0156V20.5078C4.88889 20.7785 5.09514 21 5.34722 21H16.6528C16.9049 21 17.1111 20.7785 17.1111 20.5078V20.0156C17.1111 18.5678 16.0149 17.7188 14.6667 17.7188H12.8333V14.7656C12.8333 14.7656 14.2351 13.8838 15.4344 11.7469C16.9736 11.5582 18.4365 10.9676 19.6358 10.0365C21.1368 8.87578 22 7.37051 22 5.90625V3.60938C22 3.06387 21.5913 2.625 21.0833 2.625ZM3.79271 7.90781C2.86076 7.18594 2.44444 6.38203 2.44444 5.90625V5.25H4.89653C4.93472 6.58711 5.11806 7.76016 5.38542 8.78555C4.80868 8.57227 4.27014 8.27695 3.79271 7.90781ZM19.5556 5.90625C19.5556 6.5666 18.8795 7.38691 18.2073 7.90781C17.7299 8.27695 17.1875 8.57227 16.6108 8.78555C16.8781 7.76016 17.0615 6.58711 17.0997 5.25H19.5556V5.90625Z" fill="white"/>
</svg>
