<svg width="20" height="20" viewBox="0 0 20 20" fill="none" xmlns="http://www.w3.org/2000/svg">
<path d="M8.50352 1.33959L9.49448 0.322876C9.91407 -0.107625 10.5926 -0.107625 11.0077 0.322876L19.6853 9.22143C20.1049 9.65194 20.1049 10.3481 19.6853 10.774L11.0077 19.6771C10.5881 20.1076 9.90961 20.1076 9.49448 19.6771L8.50352 18.6604C8.07946 18.2253 8.08838 17.5155 8.52137 17.0895L13.9002 11.8319H1.07131C0.477625 11.8319 0 11.3419 0 10.7328V9.26723C0 8.65812 0.477625 8.16808 1.07131 8.16808H13.9002L8.52137 2.91046C8.08392 2.48454 8.07499 1.77467 8.50352 1.33959Z" fill="white"/>
</svg>
